<?xml version="1.0" standalone="no"?>
<!DOCTYPE svg PUBLIC "-//W3C//DTD SVG 20010904//EN"
 "http://www.w3.org/TR/2001/REC-SVG-20010904/DTD/svg10.dtd">
<svg version="1.0" xmlns="http://www.w3.org/2000/svg"
 width="512.000000pt" height="512.000000pt" viewBox="0 0 512.000000 512.000000"
 preserveAspectRatio="xMidYMid meet">
<metadata>
Created by potrace 1.11, written by Peter Selinger 2001-2013
</metadata>
<g transform="translate(0.000000,512.000000) scale(0.100000,-0.100000)"
fill="#000000" stroke="none">
<path d="M2135 4744 c-44 -13 -100 -32 -125 -40 -25 -9 -67 -22 -95 -30 -193
-54 -202 -61 -210 -163 -23 -270 -40 -571 -54 -946 l-7 -200 -54 -80 c-123
-182 -392 -523 -452 -572 -68 -56 -88 -26 -88 128 0 93 20 333 55 654 8 77 22
205 31 285 21 202 32 301 43 405 12 101 14 306 5 354 -4 17 -20 46 -36 63
l-29 31 -97 -7 c-53 -3 -115 -11 -137 -16 -22 -6 -96 -19 -165 -30 -89 -15
-130 -26 -144 -40 -19 -19 -38 -151 -66 -450 -5 -58 -14 -154 -19 -215 -26
-277 -44 -527 -71 -995 -31 -533 -50 -1754 -31 -2109 18 -347 20 -369 39 -374
9 -2 44 3 77 11 33 8 96 22 140 31 44 10 139 30 210 46 92 19 135 33 148 47
16 19 17 68 17 722 0 385 3 745 7 799 7 113 11 120 129 259 39 46 115 135 169
198 234 277 237 280 267 280 18 0 32 -8 40 -22 10 -18 14 -218 19 -928 6 -889
14 -1118 43 -1254 21 -100 35 -115 152 -155 84 -28 114 -33 201 -35 95 -1 103
1 128 24 15 14 37 45 48 70 20 43 21 60 19 355 -1 171 -7 535 -14 810 -17 756
-15 1474 5 1805 22 351 34 504 47 610 5 47 16 141 24 210 8 69 20 166 26 215
11 93 1 215 -20 256 -15 26 -74 24 -175 -7z"/>
<path d="M3870 4764 c-25 -2 -88 -11 -140 -19 -52 -8 -136 -19 -185 -24 -158
-17 -225 -58 -283 -174 -96 -190 -163 -482 -193 -837 -4 -58 -15 -179 -24
-270 -14 -159 -23 -255 -45 -535 -22 -277 -31 -400 -50 -695 -11 -168 -24
-372 -30 -455 -63 -934 -49 -1223 66 -1340 59 -61 100 -71 195 -45 70 18 109
20 673 20 l599 0 33 35 c50 54 66 117 71 285 5 145 -9 287 -63 640 -8 58 -19
132 -24 165 -60 412 -169 852 -250 1016 -73 143 -147 163 -245 64 -97 -99
-323 -334 -353 -368 -18 -20 -39 -37 -47 -37 -37 0 -43 146 -15 390 5 47 14
128 19 180 6 52 15 129 20 170 6 41 17 138 26 215 89 792 93 828 126 958 32
131 73 224 119 275 74 80 212 106 297 57 65 -39 92 -99 158 -360 67 -263 122
-385 176 -385 46 0 221 272 312 485 75 175 137 392 137 476 0 44 -28 58 -146
73 -60 8 -130 20 -154 27 -44 11 -678 21 -780 13z m-130 -2800 c37 -32 50 -56
83 -154 58 -174 82 -340 82 -560 0 -380 -69 -600 -189 -600 -51 0 -107 68
-136 165 -111 378 -83 995 51 1137 42 45 66 47 109 12z"/>
</g>
</svg>
