<?xml version="1.0" standalone="no"?>
<!DOCTYPE svg PUBLIC "-//W3C//DTD SVG 20010904//EN"
 "http://www.w3.org/TR/2001/REC-SVG-20010904/DTD/svg10.dtd">
<svg version="1.0" xmlns="http://www.w3.org/2000/svg"
 width="512.000000pt" height="512.000000pt" viewBox="0 0 512.000000 512.000000"
 preserveAspectRatio="xMidYMid meet">
<metadata>
Created by potrace 1.11, written by Peter Selinger 2001-2013
</metadata>
<g transform="translate(0.000000,512.000000) scale(0.100000,-0.100000)"
fill="#000000" stroke="none">
<path d="M387 4723 c-9 -8 -9 -190 -1 -220 6 -21 12 -23 79 -23 67 0 73 -2 79
-22 11 -42 7 -3788 -4 -3809 -9 -16 -22 -19 -79 -19 -54 0 -70 -4 -75 -16 -8
-20 -8 -198 0 -218 5 -14 51 -16 409 -16 238 0 414 4 429 10 26 9 26 11 26
113 0 67 -4 107 -12 115 -7 7 -33 12 -58 12 -89 0 -85 -15 -85 342 l0 313 73
190 c41 105 103 270 138 369 36 98 97 262 135 365 69 179 103 273 189 514 68
188 173 461 183 475 5 6 13 12 18 12 5 0 9 -547 9 -1268 0 -1131 -2 -1270 -16
-1290 -13 -19 -24 -22 -83 -22 l-69 0 -6 -31 c-9 -48 -7 -182 4 -199 8 -13 68
-15 423 -18 261 -2 424 1 441 7 26 10 26 12 26 110 0 55 -3 106 -6 115 -5 12
-21 16 -74 16 -51 0 -71 4 -81 17 -12 13 -14 319 -17 1887 -2 1324 0 1882 8
1909 l11 37 64 0 c92 0 96 7 93 139 l-3 106 -442 3 -443 2 -6 -26 c-8 -31 1
-202 10 -212 4 -3 39 -8 77 -10 64 -4 71 -7 80 -29 5 -13 9 -156 9 -317 l0
-294 -35 -98 c-20 -55 -71 -193 -115 -309 -43 -115 -103 -277 -133 -360 -30
-82 -93 -253 -140 -380 -47 -126 -104 -282 -127 -345 -86 -239 -154 -416 -169
-439 l-16 -25 -7 40 c-9 49 -8 2478 1 2519 6 29 9 30 69 35 40 3 66 10 72 20
6 8 9 62 8 120 l-3 105 -426 3 c-234 1 -429 -1 -432 -5z"/>
<path d="M2910 4715 c-16 -20 -8 -198 10 -220 9 -11 32 -15 81 -15 l68 0 6
-42 c3 -24 5 -886 3 -1916 -3 -1652 -5 -1874 -18 -1882 -8 -5 -43 -10 -77 -10
-36 0 -65 -5 -69 -12 -4 -6 -9 -55 -12 -108 -4 -82 -2 -99 13 -113 16 -16 75
-17 895 -15 l878 3 26 24 c14 14 30 41 36 60 6 23 10 382 10 969 0 841 -2 937
-16 968 -9 19 -22 37 -28 41 -6 4 -99 10 -206 14 -181 7 -244 15 -390 51 -84
21 -183 75 -241 131 -60 59 -221 258 -244 304 -13 24 -15 140 -15 754 0 400 3
740 6 757 l6 30 62 -5 c104 -8 231 -49 307 -99 169 -112 234 -241 293 -585 49
-280 66 -348 92 -370 14 -12 20 -10 40 14 45 53 80 208 109 492 9 88 26 207
37 265 11 58 29 152 40 210 24 128 22 252 -5 293 l-17 27 -834 0 c-733 0 -835
-2 -846 -15z m812 -2215 c31 -36 73 -80 95 -97 72 -61 101 -83 111 -83 5 0 20
-9 33 -19 32 -25 167 -71 208 -71 18 0 41 -5 52 -10 19 -10 19 -30 19 -778 0
-679 -2 -770 -16 -790 -15 -22 -17 -22 -300 -22 l-284 0 -10 26 c-11 28 -14
1893 -3 1933 l6 25 16 -24 c9 -14 41 -54 73 -90z"/>
</g>
</svg>
